<?xml version="1.0" encoding="utf-8"?>
<!-- Generator: Adobe Illustrator 26.0.0, SVG Export Plug-In . SVG Version: 6.00 Build 0)  -->
<svg version="1.1" id="Capa_1" xmlns="http://www.w3.org/2000/svg" xmlns:xlink="http://www.w3.org/1999/xlink" x="0px" y="0px"
	 viewBox="0 0 800 800" style="enable-background:new 0 0 800 800;" xml:space="preserve">
<style type="text/css">
	.st0{fill-rule:evenodd;clip-rule:evenodd;fill:#FFC107;}
</style>
<path class="st0" d="M558.3,140.7C493.6,134,408.7,198,333.4,254.6c-38.3,29.3-75,56.8-106.3,72.7c-15.7,8-30.9,15.2-45.4,22.1
	c-39.8,19.1-73.7,35-89.9,54.5c-9.2,10.6-16.3,22.8-21.2,36c-2.4,7-3.9,14.3-4.4,21.8c31.7-10,63.4-21.8,95-35.5
	c39.4-16.7,77.8-35.9,114.8-57.4C387,303.6,467.4,227.5,557.6,141.3L558.3,140.7z M671.9,129c11.8,3.4,18.6,15.7,15.3,27.5
	c-3.4,11.8-15.7,18.6-27.5,15.3c-3.5-1-4.8,4.9-6.4,12c-7,33.9-15.6,74.6-90.3,65.1c-6.4-0.8-7.1,4.3-8,10.4
	c-5.4,31.9-11.7,70.2-94,65.6c-2.4,0-2.9,5.3-3.4,11.6c-3,35-7.1,76.9-96.2,72c-9.8-0.6-17.4-1.5-23.6-2.2c-6.2-0.7-7.3-3.1-8.7-2.1
	c-5.9,8.5-11.1,17.6-15.3,27c-3.3,6.4-7.2,13.8-12.8,23.7c-14.9,27.6-43.5,26.8-70.2,26c-7.3-0.8-14.7-0.6-22,0.6l-2.3,1.3
	c-3.7,4.7-7.1,9.6-10.2,14.7c-6.1,10.7-19.8,14.3-30.4,8.2c-10.7-6.1-14.3-19.8-8.2-30.4c4.4-7.3,9.4-14.4,14.7-21.1
	c4.3-5.7,10.1-10.1,16.7-12.8c12.8-6.4,27.5-5.7,43-5.2c13.5,0.4,28,0.9,29.9-2.7c4.5-8.2,8.7-16.3,12.3-23.2
	c12.4-23.7,18.4-35.1,28.6-42.5c12.8-9,21.8-7.9,39.7-5.9c5.5,0.6,12.8,1.4,21.1,1.9c46.3,2.6,48-16.1,49.4-31.9
	c2.7-29.3,5-54.4,50.1-52c42.7,2.2,45.5-14.5,47.8-28.5c4.8-28.8,8.9-53.3,57.4-47.2c34,4.3,38.3-14.5,41.3-30.2
	c6.8-32.3,12.8-59.5,61.9-45.5L671.9,129z M598.4,120.6c69.5-83.6,166.8-46.8,147.2,69.5c8.1,4.8,15.2,11.1,20.9,18.5
	c25.2,31.3,29,65.8,22.8,100.2c-5.8,32.4-20.2,63.8-33.3,91.5c-21,45.6-48.4,88-81.3,125.9c-30.2,34.6-65.2,64.6-103.9,89.3l0,0
	c-32.9,23.1-67.9,43.1-104.4,60c-37.8,17.4-77.4,30.5-118,39.2c-37.3,8.8-75.6,11.8-113.8,8.8c-39.7-4.3-77.2-18.6-106.4-50.6
	l-0.6-0.6c-2.4-2.7-4.7-5.4-6.8-8.2c-5.1-6.9-9.4-14.3-12.8-22.1c-98.1-9.5-130-96.5-69-150c-1.6-2.2-2.7-4.8-3.1-7.5
	c-2.7-18.4-1-37.2,5.1-54.9c6-16.7,15-32.1,26.6-45.5c20.6-24.8,57.4-42.3,100.6-62.8c14.4-6.8,29.5-14,44.7-21.8
	c29-14.9,64.2-41.4,102.1-69.8c91.2-68.9,196-148.1,279.3-111.4C595.8,118.9,597.2,119.7,598.4,120.6z M527.5,363.5
	c-17.6,14.1-35.7,27.5-54.2,40.3c-70.6,50-148.7,88.4-231.5,113.6c-34.1,11.3-61.2,20.2-83.5,36.9c-2,1.5-4,3.2-6.1,5
	c-12.1,10.6-19.6,25.4-21,41.4c-0.9,16.3,4.1,32.3,14.2,45.1c1.5,2,3.1,4,4.9,5.9l0.5,0.5c23.4,25.5,54.1,37.1,86.8,40.6
	c34.9,2.6,70-0.2,104-8.3c38.4-8.2,75.8-20.6,111.5-37c34.9-16.1,68.2-35.3,99.6-57.4l1.1-0.8c36.2-23,69-51.1,97.2-83.4
	c31-35.8,56.7-75.8,76.6-118.8c12.3-26.3,26-55.6,30.9-83.8c4.7-26.2,2-52.2-16.4-75.2c-3.9-5.1-8.8-9.2-14.5-12.1
	c-5.2-2.4-11-3.3-16.7-2.7c-36,3.1-70.6,40.4-100.9,73.3c-10.6,11.4-20.7,22.4-30.7,31.9c-17,16-34.3,30.9-51.9,44.7L527.5,363.5z"
	/>
</svg>
