<?xml version="1.0" encoding="utf-8"?>
<!-- Generator: Adobe Illustrator 26.0.0, SVG Export Plug-In . SVG Version: 6.00 Build 0)  -->
<svg version="1.1" id="Capa_1" xmlns="http://www.w3.org/2000/svg" xmlns:xlink="http://www.w3.org/1999/xlink" x="0px" y="0px"
	 viewBox="0 0 800 800" style="enable-background:new 0 0 800 800;" xml:space="preserve">
<style type="text/css">
	.st0{fill:#FFC107;}
</style>
<g>
	<path class="st0" d="M331.9,794.9c-22-1.5-44.1-2.7-66-4.7c-66.2-6-131.7-14.5-191.7-38.9c-17.6-7.2-34.4-17-48.5-28
		c-25-19.4-25-46.3-2.5-67.7c21.6-20.6,51.1-31.5,81.7-40.6c16.1-4.8,32.6-8.6,48.3-12.7c-10.4-17-22.1-33.7-31.2-51.3
		C91.5,492.6,82.6,432,92,369.1c3.2-21,17.2-33.2,37.8-42.8c32.2-15,68-21.8,104.2-27c22.3-3.2,44.9-5.1,69.4-7.8
		c-1.2,9.9-1.8,18.1-3.4,26.1c-0.3,1.4-4.6,2.8-7.3,3.3c-34.7,5.4-69.8,9.8-104.2,16.3c-15.2,2.9-29.8,8.9-43.5,15.1
		c-16.7,7.6-16.6,17.2-0.5,25.6c22.1,11.6,47.3,17.1,72.7,21.7c69.4,12.6,139.9,14.8,210.8,11.8c49.2-2,98-6.9,144.9-19.5
		c14.3-3.8,28.4-9.2,41.1-15.6c13.8-7,13.3-15,0-22.8c-20.1-11.7-43.8-16.7-67.4-21.5c-16-3.3-32.3-5.5-49-8.3
		c3.1-8.6,6.1-17,9.5-26.5c11.1,1.7,22.5,3.2,33.8,5.1c29.3,5,57.9,11.6,84.4,23.3c24.9,11,40.6,26.1,39.5,50
		c-0.3,7.7,1.2,15.4,1.9,23.3c10.7-1.5,20.8-3.3,30.9-4.4c52.5-5.7,95.3,22.5,96,64.6c0.9,53.9-33.6,91-91.8,115.6
		c-23.6,10-49.4,14.9-76,15.3c-12.4,0.1-18.4,3.8-22,12.9c10.8,2.6,21.7,5,32.3,8c30.2,8.3,60,17.6,84,35
		c7.8,5.7,15.1,12.3,20.4,19.5c14.8,20.5,9.1,43-14.7,61.8c-19.8,15.6-44.1,25.5-69.7,33.5c-48.8,15.2-99.7,23.4-151.6,28.1
		c-27.4,2.5-55,4.1-82.5,6.2C391.9,794.9,361.9,794.9,331.9,794.9z M128.1,404.3c-0.3,4-0.7,7.6-0.7,11.1
		c-0.3,33.3,6.1,65.7,18.8,97.4c19.2,48.1,49,91,99,123.5c36.3,23.6,77.6,37.7,124.8,39.2c71.5,2.2,128.8-21.4,174.8-63.3
		c44.9-41,68.1-89.9,78.2-142.7c4.1-21.2,4.1-42.9,6.1-65.3c-16.7,5.4-30.5,10.6-44.8,14.3c-61.3,15.8-124.7,21.1-188.7,21.6
		C304.2,440.8,213.8,436.2,128.1,404.3z M396.8,764.2c22.7-1.4,64.7-3,106.4-6.7c52.5-4.7,104.3-12.9,152.6-30.8
		c16.2-6,31.6-14.4,45-23.7c12.3-8.6,11-19.2-0.3-28.7c-5.7-4.8-12.4-9.2-19.4-12.8c-30.1-15.6-64.2-23.5-98.7-30.3
		c-2.8-0.5-7.2,1.4-9.7,3.2c-12.7,9.2-24.2,19.7-37.7,28c-69.2,42.8-146.2,55.6-230.6,34.7c-46.5-11.5-84.8-33.3-117.4-61.7
		c-2.8-2.4-8.1-5.2-11.4-4.6c-31.6,5.4-62.5,12.7-90.6,25.5C73,661.7,62,669,52.3,676.7c-8.9,7.2-8.6,16.1-0.6,24
		c5.6,5.5,12.2,11.4,20.1,14.3c24.5,9.3,49.2,19.1,75,25.4C221.9,758.7,299.5,763.1,396.8,764.2z M633.7,558.5
		c34.6-3.4,64.5-13.5,88.1-33.5c21.6-18.3,34.4-39.7,32.7-65.6c-1.3-19.5-15.8-33.6-39.1-34c-14.8-0.2-29.8,3.6-44.6,6.2
		c-2,0.3-3.7,4.2-4.2,6.6c-4,21.1-6.2,42.4-11.8,63.2C649.6,520.4,641.1,538.8,633.7,558.5z"/>
	<path class="st0" d="M386.5,5.7c-2.7,13.4-5.4,26.8-8,40.2c-5.7,30.2,1.3,58.3,21.3,84.6c15.5,20.3,31.6,40.4,44.7,61.6
		c34.5,55.8,27.1,109.9-15,161.5c-8.8,10.8-19.1,20.7-28.7,31c-0.9-0.3-1.7-0.5-2.6-0.8c0.5-2,0.9-4,1.4-5.9
		c7.4-25.9,16.6-51.5,21.7-77.6c8.1-41.3-7.6-78.8-33.1-114.6c-13.4-18.8-27-37.9-36-58.1c-17-38.2-4-74.1,20.8-108
		c3.7-5,8.1-9.7,12.1-14.5C385.7,5.3,386.1,5.5,386.5,5.7z"/>
	<path class="st0" d="M344.7,335.1c1-19.2,2.9-37.4,2.8-55.6c-0.1-19.7-8.2-38-21.2-54.8c-7.3-9.5-15.1-18.6-22.7-27.9
		c-14-17.2-16.5-35.7-8.8-54.8c5.3-13.1,12.3-25.7,18.9-39.4c0,12.4-0.1,23.4,0,34.3c0.2,15,7.2,28.1,17.8,40.2
		c8.9,10.2,17.7,20.4,26.4,30.6c29.3,34.5,27,69.8,3.6,105.3C356.6,320.5,350.5,327.5,344.7,335.1z"/>
</g>
</svg>
