<?xml version="1.0" encoding="utf-8"?>
<!-- Generator: Adobe Illustrator 26.0.0, SVG Export Plug-In . SVG Version: 6.00 Build 0)  -->
<svg version="1.1" id="Capa_1" xmlns="http://www.w3.org/2000/svg" xmlns:xlink="http://www.w3.org/1999/xlink" x="0px" y="0px"
	 viewBox="0 0 800 800" style="enable-background:new 0 0 800 800;" xml:space="preserve">
<style type="text/css">
	.st0{fill:#FFC107;}
</style>
<g>
	<circle class="st0" cx="441.2" cy="541" r="13.4"/>
	<circle class="st0" cx="481.4" cy="608" r="13.4"/>
	<circle class="st0" cx="468" cy="460.6" r="13.4"/>
	<path class="st0" d="M305.3,571.7l29.4-27.4c7.8-7.3,12.3-17.3,12.7-28c0.4-10.7-3.5-21-10.8-28.8l-27.4-29.4
		c-15.1-16.2-40.6-17-56.8-1.9l-29.4,27.4c-16.2,15.1-17.1,40.6-1.9,56.8l27.4,29.4c7.9,8.5,18.6,12.7,29.4,12.7
		C287.7,582.5,297.5,578.9,305.3,571.7z M268,551.5l-27.4-29.4c-5-5.4-4.7-13.9,0.6-18.9l29.4-27.4c2.6-2.4,5.9-3.6,9.2-3.6
		c3.6,0,7.2,1.4,9.8,4.2l27.4,29.4c2.4,2.6,3.7,6,3.6,9.6c-0.1,3.6-1.6,6.9-4.2,9.3L287,552.1C281.6,557.1,273.1,556.9,268,551.5z"
		/>
	<path class="st0" d="M249.7,411.4c0.5,0,0.9,0,1.4,0c10.2,0,19.9-3.8,27.4-10.8l29.4-27.4c16.2-15.1,17.1-40.6,1.9-56.8L282.3,287
		c-15.1-16.2-40.6-17-56.8-1.9l-29.4,27.4c-16.2,15.1-17.1,40.6-1.9,56.8l27.4,29.4C229,406.5,238.9,411.1,249.7,411.4z
		 M214.4,332.1l29.4-27.4c2.6-2.4,5.9-3.6,9.2-3.6c3.6,0,7.2,1.4,9.8,4.2l27.4,29.4c5,5.4,4.7,13.9-0.6,18.9L260.2,381
		c-2.6,2.4-6,3.6-9.6,3.6c-3.6-0.1-6.9-1.6-9.3-4.2L213.8,351C208.8,345.6,209,337.2,214.4,332.1z"/>
	<circle class="st0" cx="267" cy="649.5" r="13.4"/>
	<path class="st0" d="M571.7,226.9c0.6-14.3-2.6-28.4-9.5-41.3c-4.8-9-10.2-17.6-16-25.8l14.7-38.3l-25-9.6l-9.2,24
		c-42.4-45.1-102-71.6-165.9-71.6c-84.6,0-161.8,46.5-201.4,121.3c-6.9,13-10.1,27.1-9.5,41.3c-3.6,1.4-6.8,3.7-9.3,6.7
		c-4.5,5.4-6.4,12.5-5.2,19.3l84.1,494.3c5.5,30.6,32,52.8,63.1,52.8h156.3c31.1,0,57.6-22.2,63.1-52.9L586.1,253
		c1.3-7-0.6-14-5.2-19.5C578.5,230.6,575.2,228.3,571.7,226.9z M538.5,198.1c4.5,8.5,6.7,17.6,6.4,27h-23.7l13.1-34.2
		C535.7,193.2,537.2,195.6,538.5,198.1z M183,198.1c35-66,103.1-107,177.7-107c60.8,0,117.3,27.3,155.1,73.1L492.5,225H176.6
		C176.4,215.7,178.5,206.6,183,198.1z M475.7,742.5c-3.2,17.8-18.7,30.7-36.7,30.7H282.6c-18.1,0-33.5-12.9-36.7-30.6l-83.5-490.8
		h319.9L425.9,399c-1.7-5.7-4.6-11-8.9-15.6L389.5,354c-15.1-16.2-40.6-17-56.8-1.9l-29.4,27.4c-16.2,15.1-17.1,40.6-1.9,56.8
		l27.4,29.4c7.3,7.8,17.3,12.3,28,12.7c0.5,0,0.9,0,1.4,0c10.2,0,19.9-3.8,27.4-10.8l21.7-20.2l-42.4,110.8
		c-2.5,2.4-62,161.9-62,161.9c-2.4-2.3-5.6-3.7-9.1-3.7c-7.4,0-13.4,6-13.4,13.4c0,7.4,6,13.4,13.4,13.4c1.2,0,2.3-0.4,3.4-0.7
		l22.5,8.6l16.1-41.9c1.6,3,3.5,5.9,5.9,8.4l27.4,29.4c7.3,7.8,17.3,12.3,28,12.7c0.5,0,0.9,0,1.4,0c10.2,0,19.9-3.8,27.4-10.8
		l29.4-27.4c16.2-15.1,17.1-40.6,1.9-56.8l-27.4-29.4c-15.1-16.2-40.6-17-56.8-1.9l-12.7,11.8c0,0,67.1-173.5,66.9-174.6l83.8-218.9
		h48.2L475.7,742.5z M396.7,420.6l-29.4,27.4c-2.6,2.4-5.9,3.6-9.6,3.6c-3.6-0.1-6.9-1.6-9.3-4.2L321,418c-5-5.4-4.7-13.9,0.6-18.9
		l29.4-27.4c2.6-2.4,5.9-3.6,9.2-3.6c3.6,0,7.2,1.4,9.8,4.2l27.4,29.4C402.4,407.1,402.1,415.6,396.7,420.6z M361.8,680.5l29.4-27.4
		c2.6-2.4,5.9-3.6,9.2-3.6c3.6,0,7.2,1.4,9.8,4.2l27.4,29.4c5,5.4,4.7,13.9-0.6,18.9l-29.4,27.4c-2.6,2.4-5.9,3.6-9.6,3.6
		c-3.6-0.1-6.9-1.6-9.3-4.2l-27.4-29.4C356.1,694,356.4,685.5,361.8,680.5z"/>
	<path class="st0" d="M557.8,80.4l26.8,26.8l-18.9,18.9l-26.8-26.8L557.8,80.4z M592.5,99.4l-26.8-26.8l18.9-18.9l26.8,26.8
		L592.5,99.4z M619.3,72.6l-26.8-26.8l18.9-18.9l26.8,26.8L619.3,72.6z M619.3,18.9L638.2,0L665,26.8L646,45.7L619.3,18.9z"/>
</g>
</svg>
