<?xml version="1.0" encoding="utf-8"?>
<!-- Generator: Adobe Illustrator 26.0.0, SVG Export Plug-In . SVG Version: 6.00 Build 0)  -->
<svg version="1.1" id="Layer_1" xmlns="http://www.w3.org/2000/svg" xmlns:xlink="http://www.w3.org/1999/xlink" x="0px" y="0px"
	 viewBox="0 0 101.2 122.9" style="enable-background:new 0 0 101.2 122.9;" xml:space="preserve">
<style type="text/css">
	.st0{fill:#005993;}
</style>
<g>
	<path class="st0" d="M18,27.2c8.3,2.8,19.8,4.5,32.5,4.5s24.3-1.7,32.5-4.5c7.2-2.4,11.7-5.4,11.7-8.2s-4.5-5.8-11.7-8.2
		C74.8,8,63.3,6.3,50.6,6.3S26.3,8,18,10.8C2.7,15.9,2.2,21.9,18,27.2L18,27.2z M94.8,85.6c-2.6,1.8-5.9,3.3-9.8,4.6
		C76.2,93.2,64,95,50.6,95S24.9,93.2,16,90.2c-3.8-1.3-7.1-2.8-9.7-4.6v18.8c0.6,2.7,4.9,5.4,11.7,7.6c8.3,2.8,19.8,4.5,32.5,4.5
		s24.3-1.7,32.5-4.5c5-1.7,8.7-3.6,10.5-5.6c1.5-1.6,1.2-2.7,1.2-4.6L94.8,85.6L94.8,85.6z M0,19C0,13.1,6.1,8.1,16,4.8
		C24.9,1.8,37.2,0,50.6,0s25.6,1.8,34.5,4.8c9,3,14.9,7.4,15.9,12.6c0.1,0.3,0.2,0.7,0.2,1.1v86.7c0,6-11.5,11.3-16.1,12.9
		c-8.9,3-21.1,4.8-34.5,4.8s-25.6-1.8-34.5-4.8c-4.7-1.6-16-6.7-16-12.9c0-0.7,0-1.3,0-2C0.1,75.1,0,47,0,19L0,19z M6.4,76.6
		c0.6,2.7,4.9,5.4,11.7,7.6c8.3,2.8,19.8,4.5,32.5,4.5s24.3-1.7,32.5-4.5c7.2-2.4,11.7-5.3,11.7-8.2h0V57.7
		c-2.6,1.8-5.9,3.3-9.8,4.6c-8.9,3-21.1,4.8-34.5,4.8S24.9,65.3,16,62.3c-3.8-1.3-7.1-2.8-9.7-4.5L6.4,76.6L6.4,76.6z M6.4,48.8
		c0.6,2.7,4.9,5.4,11.7,7.6c8.3,2.8,19.8,4.5,32.5,4.5s24.3-1.7,32.5-4.5c7.2-2.4,11.7-5.3,11.7-8.2h0V28.5
		c-2.6,1.8-5.9,3.3-9.8,4.6C76.2,36.1,64,38,50.6,38S24.9,36.1,16,33.1c-3.8-1.3-7.1-2.8-9.7-4.5L6.4,48.8L6.4,48.8z"/>
</g>
</svg>
