<?xml version="1.0" encoding="utf-8"?>
<!-- Generator: Adobe Illustrator 26.0.0, SVG Export Plug-In . SVG Version: 6.00 Build 0)  -->
<svg version="1.1" id="Capa_1" xmlns="http://www.w3.org/2000/svg" xmlns:xlink="http://www.w3.org/1999/xlink" x="0px" y="0px"
	 viewBox="0 0 800 800" style="enable-background:new 0 0 800 800;" xml:space="preserve">
<style type="text/css">
	.st0{fill-rule:evenodd;clip-rule:evenodd;fill:#FFC107;}
</style>
<g>
	<path class="st0" d="M369.3,793.6L221.7,404.2c131.9-6.3,196.2,1.3,343.3,0L410.3,793.6H369.3L369.3,793.6z M471.6,143
		c-1.3-17-17-29-30.3-39.1c-6.3-5-12.6-9.5-17.7-15.1c-13.3-13.9-18.3-28.4-1.3-49.2c-13.3-3.2-26.5-3.2-39.1-1.3
		c-13.3,2.5-25.9,7.6-36,15.8s-18.3,18.3-23.3,31.6c-5.7,15.1-7.6,32.8-3.8,53c0.6,5-2.5,10.1-7.6,10.7h-0.6l0,0
		c-7.6,1.3-14.5,3.2-20.8,6.3c-11.4,5.7-20.2,15.1-25.2,25.9c-5,11.4-6.9,24.6-5,38.5c1.3,8.8,4.4,18.3,9.5,27.8
		c2.5,4.4,0.6,10.1-3.8,12.6c-0.6,0.6-1.3,0.6-1.9,0.6c-13.9,3.8-25.2,10.7-32.8,19.6c-5,5.7-8.8,12.6-10.1,20.2
		c-1.9,7.6-1.3,15.1,1.3,24c3.8,13.3,12.6,27.8,28.4,41h296.6c13.3-6.9,22.1-16.4,27.8-27.8c5.7-12,7.6-25.2,5-38.5
		c-1.9-13.3-8.2-25.9-17-36.6c-9.5-10.7-22.1-18.9-37.2-22.1c0,0,0,0-0.6,0c-12.6,3.8-26.5,9.5-41,15.8
		c-43.5,18.9-93.4,40.4-140.1,17c-5-2.5-6.3-8.2-4.4-12.6c1.9-4.4,8.2-6.3,12.6-4.4c38.5,19.6,83.9,0,123.7-17.7
		c15.1-6.3,29.7-12.6,43.5-17c3.8-18.9,1.3-33.4-5-44.2c-6.3-10.1-17-17.7-31.6-22.7c-15.8,13.3-32.2,22.7-49.2,27.1
		c-17.7,5-34.7,4.4-50.5-2.5c-5-1.9-6.9-7.6-5-12.6c1.9-5,7.6-6.9,12.6-5c11.4,5,24,5,37.2,1.3C444.4,161.9,458.3,154.3,471.6,143
		L471.6,143z M347.9,111.4c3.8,0,7.6,3.2,7.6,7.6c0,4.4-3.2,7.6-7.6,7.6s-7.6-4.4-7.6-8.2C340.3,114.6,343.5,111.4,347.9,111.4
		L347.9,111.4z M394.6,305.8c4.4,0,8.2,3.8,8.2,8.2c0,4.4-3.8,8.2-8.2,8.2s-8.2-3.8-8.2-8.2C386.4,309.6,389.5,305.8,394.6,305.8
		L394.6,305.8z M287.9,291.3c4.4,0,8.2,3.8,8.2,8.2c0,4.4-3.8,8.2-8.2,8.2c-4.4,0-8.2-3.8-8.2-8.2S282.9,291.3,287.9,291.3
		L287.9,291.3z M527.7,298.8c4.4,0,8.2,3.8,8.2,8.2c0,4.4-3.8,8.2-8.2,8.2s-8.2-3.8-8.2-8.2C519.5,302.6,523.3,298.8,527.7,298.8
		L527.7,298.8z M354.2,330.4c-1.9-1.9-1.3-5,0.6-6.3c1.9-1.3,5-1.3,6.3,0.6l10.7,12.6c1.9,1.9,1.3,5-0.6,6.3c-1.9,1.3-5,1.3-6.3-0.6
		L354.2,330.4L354.2,330.4z M248.2,315.3c-1.9-1.9-1.3-5,0.6-6.3s5-1.3,6.9,0.6l10.7,12.6c1.9,1.9,1.3,5-0.6,6.3s-5,1.3-6.9-0.6
		L248.2,315.3L248.2,315.3z M488,323.5c-1.9-1.9-1.3-5,0.6-6.3c1.9-1.3,5-1.3,6.3,0.6l10.7,12.6c1.9,1.9,1.3,5-0.6,6.3
		c-1.9,1.3-5,1.3-6.3-0.6L488,323.5L488,323.5z M452.6,88.7c16.4,12.6,34.7,26.5,37.9,49.9c18.3,6.3,32.8,16.4,41.6,30.9
		c8.8,14.5,12,32.2,7.6,55.5c15.8,5,28.4,14.5,38.5,25.9c10.7,12.6,18.3,29,20.8,45.4c2.5,16.4,0.6,34.1-6.9,49.2
		c-6.9,14.5-19.6,27.8-37.9,36.6c-1.3,0.6-3.2,1.3-5,1.3H246.3l0,0c-1.9,0-4.4-0.6-6.3-1.9c-20.2-16.4-32.2-34.7-37.2-53
		c-3.2-11.4-3.8-22.1-1.3-32.8c2.5-10.7,6.9-20.2,14.5-28.4c8.2-9.5,18.9-17,32.2-22.1c-3.2-8.2-5.7-15.8-6.9-24
		c-2.5-17.7-0.6-34.7,6.9-49.2c6.9-14.5,18.3-26.5,34.1-34.7c5-2.5,10.7-5,17-6.3c-2.5-20.2,0-38.5,5.7-54.3
		c6.3-15.8,16.4-29,29-39.1s27.8-16.4,44.2-19.6c20.2-3.8,41.6-1.9,63.1,6.3c1.3,0.6,2.5,1.3,3.8,2.5c3.8,3.8,3.2,9.5-0.6,13.3
		C426.1,56.5,428,66,435.6,74.2C441.3,79.9,446.9,84.3,452.6,88.7L452.6,88.7z M367.4,701.4l-14.5-39.1l92.8-20.8L428,688.2
		L367.4,701.4L367.4,701.4z M337.8,621.3l-14.5-39.1l159-36l-17.7,46.7L337.8,621.3L337.8,621.3z M308.1,541.2L293.6,502l225.9-51.1
		l-18.3,46.7L308.1,541.2L308.1,541.2z"/>
</g>
</svg>
