<svg width="23" height="44" viewBox="0 0 23 44" fill="none" xmlns="http://www.w3.org/2000/svg">
<g clip-path="url(#clip0_15_112)">
<path d="M22.7825 31.878L17.4365 26.532C18.1698 25.696 18.7345 24.7573 19.1305 23.716C19.5411 22.6453 19.7465 21.5307 19.7465 20.372C19.7465 18.6707 19.3211 17.094 18.4705 15.642C17.6345 14.234 16.5125 13.112 15.1045 12.276C13.6525 11.4253 12.0758 11 10.3745 11C8.67314 11 7.08914 11.4253 5.62247 12.276C4.21447 13.112 3.09247 14.234 2.25647 15.642C1.4058 17.094 0.980469 18.6707 0.980469 20.372C0.980469 22.0733 1.4058 23.65 2.25647 25.102C3.09247 26.5247 4.2218 27.654 5.64447 28.49C7.09647 29.3407 8.67314 29.766 10.3745 29.766C11.5185 29.766 12.6258 29.5607 13.6965 29.15C14.7378 28.754 15.6765 28.1893 16.5125 27.456L21.8585 32.802C21.9905 32.934 22.1445 33 22.3205 33C22.4085 33 22.4928 32.9817 22.5735 32.945C22.6541 32.9083 22.7238 32.8607 22.7825 32.802C22.9145 32.6847 22.9805 32.5343 22.9805 32.351C22.9805 32.1677 22.9145 32.01 22.7825 31.878ZM2.30047 20.372C2.30047 18.92 2.66714 17.5633 3.40047 16.302C4.11914 15.0993 5.0798 14.1387 6.28247 13.42C7.5438 12.6867 8.90414 12.32 10.3635 12.32C11.8228 12.32 13.1758 12.6867 14.4225 13.42C15.6398 14.1387 16.6078 15.0993 17.3265 16.302C18.0598 17.5633 18.4265 18.92 18.4265 20.372C18.4265 21.824 18.0598 23.1807 17.3265 24.442C16.6078 25.6593 15.6398 26.6273 14.4225 27.346C13.1758 28.0793 11.8228 28.446 10.3635 28.446C8.90414 28.446 7.5438 28.0793 6.28247 27.346C5.0798 26.6273 4.11914 25.6593 3.40047 24.442C2.66714 23.1953 2.30047 21.8387 2.30047 20.372Z" fill="#0E1C3C"/>
</g>
<defs>
<clipPath id="clip0_15_112">
<rect width="22" height="44" fill="white" transform="matrix(1 0 0 -1 0.980469 44)"/>
</clipPath>
</defs>
</svg>
