<svg width="29" height="26" viewBox="0 0 29 26" fill="none" xmlns="http://www.w3.org/2000/svg">
<path d="M25.9019 2.97631C25.1739 2.24831 24.3386 1.68831 23.3959 1.29631C22.4533 0.904312 21.4686 0.708311 20.4419 0.708311C19.4153 0.708311 18.4259 0.904312 17.4739 1.29631C16.5219 1.68831 15.6819 2.24831 14.9539 2.97631L14.1699 3.76031L13.4139 2.97631C12.6673 2.22964 11.8226 1.66031 10.8799 1.26831C9.93726 0.876312 8.94792 0.680311 7.91192 0.680311C6.87592 0.680311 5.88659 0.876312 4.94392 1.26831C4.00126 1.66031 3.16592 2.22498 2.43792 2.96231C1.70992 3.69965 1.14992 4.53964 0.757922 5.48231C0.365922 6.42498 0.169922 7.40965 0.169922 8.43631C0.169922 9.46298 0.365922 10.4523 0.757922 11.4043C1.14992 12.3563 1.70992 13.1963 2.43792 13.9243L13.6099 25.0683C13.7593 25.2363 13.9413 25.3203 14.1559 25.3203C14.3706 25.3203 14.5619 25.2363 14.7299 25.0683L25.9019 13.9523C26.6299 13.2056 27.1899 12.361 27.5819 11.4183C27.9739 10.4756 28.1699 9.48631 28.1699 8.45031C28.1699 7.41431 27.9739 6.42498 27.5819 5.48231C27.1899 4.53964 26.6299 3.70431 25.9019 2.97631ZM24.7819 12.8043L14.1699 23.3883L3.58592 12.8043C2.98859 12.207 2.53592 11.535 2.22792 10.7883C1.91992 10.0416 1.76592 9.25764 1.76592 8.43631C1.76592 7.61498 1.92459 6.83098 2.24192 6.08431C2.55926 5.33764 3.00726 4.67498 3.58592 4.09631C4.16459 3.51764 4.82726 3.07431 5.57392 2.76631C6.32059 2.45831 7.09992 2.30431 7.91192 2.30431C8.72392 2.30431 9.50792 2.45831 10.2639 2.76631C11.0199 3.07431 11.6873 3.51764 12.2659 4.09631L13.6099 5.44031C13.7593 5.58965 13.9459 5.66431 14.1699 5.66431C14.3939 5.66431 14.5899 5.58965 14.7579 5.44031L16.0739 4.12431C16.6526 3.54564 17.3153 3.09764 18.0619 2.78031C18.8086 2.46298 19.5926 2.30431 20.4139 2.30431C21.2353 2.30431 22.0193 2.45831 22.7659 2.76631C23.5126 3.07431 24.1799 3.52231 24.7679 4.11031C25.3559 4.69831 25.8039 5.36564 26.1119 6.11231C26.4199 6.85898 26.5739 7.64298 26.5739 8.46431C26.5739 9.28564 26.4199 10.0696 26.1119 10.8163C25.8039 11.563 25.3606 12.2256 24.7819 12.8043Z" fill="white"/>
</svg>
