<svg width="59" height="58" viewBox="0 0 59 58" fill="none" xmlns="http://www.w3.org/2000/svg">
<rect x="0.169922" width="58" height="58" rx="5" fill="#005993"/>
<g clip-path="url(#clip0_15_118)">
<path d="M40.9019 18.9763C40.1739 18.2483 39.3386 17.6883 38.3959 17.2963C37.4533 16.9043 36.4686 16.7083 35.4419 16.7083C34.4153 16.7083 33.4259 16.9043 32.4739 17.2963C31.5219 17.6883 30.6819 18.2483 29.9539 18.9763L29.1699 19.7603L28.4139 18.9763C27.6673 18.2296 26.8226 17.6603 25.8799 17.2683C24.9373 16.8763 23.9479 16.6803 22.9119 16.6803C21.8759 16.6803 20.8866 16.8763 19.9439 17.2683C19.0013 17.6603 18.1659 18.225 17.4379 18.9623C16.7099 19.6996 16.1499 20.5396 15.7579 21.4823C15.3659 22.425 15.1699 23.4096 15.1699 24.4363C15.1699 25.463 15.3659 26.4523 15.7579 27.4043C16.1499 28.3563 16.7099 29.1963 17.4379 29.9243L28.6099 41.0683C28.7593 41.2363 28.9413 41.3203 29.1559 41.3203C29.3706 41.3203 29.5619 41.2363 29.7299 41.0683L40.9019 29.9523C41.6299 29.2056 42.1899 28.361 42.5819 27.4183C42.9739 26.4756 43.1699 25.4863 43.1699 24.4503C43.1699 23.4143 42.9739 22.425 42.5819 21.4823C42.1899 20.5396 41.6299 19.7043 40.9019 18.9763ZM39.7819 28.8043L29.1699 39.3883L18.5859 28.8043C17.9886 28.207 17.5359 27.535 17.2279 26.7883C16.9199 26.0416 16.7659 25.2576 16.7659 24.4363C16.7659 23.615 16.9246 22.831 17.2419 22.0843C17.5593 21.3376 18.0073 20.675 18.5859 20.0963C19.1646 19.5176 19.8273 19.0743 20.5739 18.7663C21.3206 18.4583 22.0999 18.3043 22.9119 18.3043C23.7239 18.3043 24.5079 18.4583 25.2639 18.7663C26.0199 19.0743 26.6873 19.5176 27.2659 20.0963L28.6099 21.4403C28.7593 21.5896 28.9459 21.6643 29.1699 21.6643C29.3939 21.6643 29.5899 21.5896 29.7579 21.4403L31.0739 20.1243C31.6526 19.5456 32.3153 19.0976 33.0619 18.7803C33.8086 18.463 34.5926 18.3043 35.4139 18.3043C36.2353 18.3043 37.0193 18.4583 37.7659 18.7663C38.5126 19.0743 39.1799 19.5223 39.7679 20.1103C40.3559 20.6983 40.8039 21.3656 41.1119 22.1123C41.4199 22.859 41.5739 23.643 41.5739 24.4643C41.5739 25.2856 41.4199 26.0696 41.1119 26.8163C40.8039 27.563 40.3606 28.2256 39.7819 28.8043Z" fill="white"/>
</g>
<defs>
<clipPath id="clip0_15_118">
<rect width="28" height="56" fill="white" transform="matrix(1 0 0 -1 15.1699 57)"/>
</clipPath>
</defs>
</svg>
