<svg width="59" height="58" viewBox="0 0 59 58" fill="none" xmlns="http://www.w3.org/2000/svg">
<rect x="0.169922" width="58" height="58" rx="5" fill="#005993"/>
<g clip-path="url(#clip0_15_121)">
<path d="M29.0575 30.092C29.0949 30.092 29.1322 30.092 29.1695 30.092H29.2535C30.9522 30.0733 32.3149 29.4853 33.3415 28.328C34.0135 27.5813 34.5082 26.6107 34.8255 25.416C35.0495 24.5387 35.1802 23.596 35.2175 22.588C35.2362 21.9533 35.2175 21.4493 35.1615 21.076C35.1055 19.676 34.7695 18.5 34.1535 17.548C33.7055 16.82 33.1082 16.2413 32.3615 15.812C31.4469 15.308 30.4015 15.0373 29.2255 15H29.1415C28.6935 15 28.2455 15.0467 27.7975 15.14C27.1442 15.2707 26.5469 15.4853 26.0055 15.784C25.2589 16.2133 24.6522 16.792 24.1855 17.52C23.5695 18.4907 23.2335 19.676 23.1775 21.076C23.1215 21.4493 23.1029 21.9533 23.1215 22.588C23.1589 23.596 23.2895 24.5387 23.5135 25.416C23.8309 26.6107 24.3255 27.5813 24.9975 28.328C26.0242 29.4853 27.3775 30.0733 29.0575 30.092ZM24.7175 21.216C24.7175 21.1973 24.7175 21.1787 24.7175 21.16C24.7735 19.8907 25.0909 18.8827 25.6695 18.136C26.1175 17.5387 26.7149 17.1093 27.4615 16.848C27.9655 16.6613 28.5162 16.568 29.1135 16.568H29.1975C30.2802 16.5867 31.1855 16.8667 31.9135 17.408C32.9589 18.1733 33.5189 19.424 33.5935 21.16C33.5935 21.1973 33.6029 21.216 33.6215 21.216V21.244C33.6775 22.0467 33.6589 22.8493 33.5655 23.652C33.3789 25.2387 32.9122 26.452 32.1655 27.292C31.4562 28.0947 30.4669 28.5053 29.1975 28.524H29.1415C27.8535 28.5053 26.8549 28.0947 26.1455 27.292C25.3989 26.452 24.9415 25.2293 24.7735 23.624C24.6802 22.8027 24.6615 22.0093 24.7175 21.244V21.216ZM41.0695 37.232V37.092C41.0509 36.084 40.9202 35.2627 40.6775 34.628C40.2669 33.508 39.5202 32.7613 38.4375 32.388L38.3815 32.36C37.6162 32.1733 36.8135 31.8933 35.9735 31.52C35.3762 31.24 34.7975 30.9413 34.2375 30.624C33.8455 30.3813 33.6215 30.232 33.5655 30.176C33.3975 30.0453 33.2062 29.9987 32.9915 30.036C32.7769 30.0733 32.6042 30.1853 32.4735 30.372C32.3429 30.5587 32.3009 30.7547 32.3475 30.96C32.3942 31.1653 32.5015 31.3333 32.6695 31.464L32.7815 31.52C34.5175 32.6587 36.2442 33.4427 37.9615 33.872C38.5775 34.0773 39.0069 34.516 39.2495 35.188C39.3989 35.636 39.4829 36.28 39.5015 37.12C39.5015 37.1947 39.5109 37.2413 39.5295 37.26C39.5295 38.0813 39.4829 38.6787 39.3895 39.052C38.4749 39.5747 37.3549 40.0413 36.0295 40.452C33.8642 41.1053 31.5822 41.432 29.1835 41.432C26.7849 41.432 24.5029 41.1053 22.3375 40.452C21.0309 40.0413 19.9015 39.5747 18.9495 39.052C18.9122 38.828 18.8795 38.5387 18.8515 38.184C18.8235 37.8293 18.8189 37.5213 18.8375 37.26V37.12C18.8562 36.28 18.9495 35.636 19.1175 35.188C19.3602 34.516 19.7802 34.0773 20.3775 33.872C22.0949 33.424 23.8215 32.64 25.5575 31.52L25.6695 31.464C25.8562 31.3333 25.9682 31.1607 26.0055 30.946C26.0429 30.7313 25.9962 30.5353 25.8655 30.358C25.7349 30.1807 25.5622 30.0733 25.3475 30.036C25.1329 29.9987 24.9415 30.0453 24.7735 30.176C24.7175 30.232 24.4935 30.372 24.1015 30.596C23.5415 30.932 22.9629 31.2307 22.3655 31.492C21.5442 31.8653 20.7415 32.1547 19.9575 32.36L19.9015 32.388C18.8189 32.7613 18.0722 33.508 17.6615 34.628C17.4189 35.244 17.2882 36.056 17.2695 37.064V37.316C17.2695 38.5293 17.3629 39.3787 17.5495 39.864C17.6055 40.0133 17.7082 40.1347 17.8575 40.228C18.1935 40.452 18.6789 40.704 19.3135 40.984C20.4895 41.5253 21.7775 41.964 23.1775 42.3C25.1002 42.7667 27.0975 43 29.1695 43C32.0069 43 34.6762 42.58 37.1775 41.74C38.4655 41.292 39.5669 40.7973 40.4815 40.256L40.5095 40.228C40.6402 40.1347 40.7335 40.0133 40.7895 39.864C40.9202 39.528 41.0135 39.0333 41.0695 38.38C41.0882 37.876 41.0882 37.4933 41.0695 37.232Z" fill="black"/>
</g>
<defs>
<clipPath id="clip0_15_121">
<rect width="28" height="28" fill="white" transform="matrix(1 0 0 -1 15.1699 43)"/>
</clipPath>
</defs>
</svg>
