<?xml version="1.0" encoding="utf-8"?>
<!-- Generator: Adobe Illustrator 26.0.0, SVG Export Plug-In . SVG Version: 6.00 Build 0)  -->
<svg version="1.1" id="Layer_1" xmlns="http://www.w3.org/2000/svg" xmlns:xlink="http://www.w3.org/1999/xlink" x="0px" y="0px"
	 viewBox="0 0 115.3 122.9" style="enable-background:new 0 0 115.3 122.9;" xml:space="preserve">
<style type="text/css">
	.st0{fill-rule:evenodd;clip-rule:evenodd;fill:#005993;}
</style>
<g>
	<path class="st0" d="M25.4,57h64.9V37.3H69.6c-2.2,0-5.2-1.2-6.6-2.6c-1.4-1.4-2.3-4-2.3-6.2V7.6l0,0H8.1C8,7.6,7.8,7.7,7.7,7.8
		C7.6,7.9,7.6,8.1,7.6,8.2v106.4c0,0.1,0.1,0.3,0.2,0.4c0.1,0.1,0.3,0.2,0.4,0.2c22.8,0,58.1,0,81.5,0c0.2,0,0.2-0.1,0.3-0.2
		c0.1-0.1,0.3-0.3,0.3-0.4v-11.2H25.4c-4.1,0-7.6-3.4-7.6-7.6V64.6C17.8,60.4,21.2,57,25.4,57L25.4,57z M41.4,67.7h13.2
		c2.9,0,5,0.7,6.5,2.1s2.2,3.3,2.2,5.8c0,2.6-0.8,4.6-2.3,6.1s-4,2.2-7.2,2.2h-4.3v9.5h-8L41.4,67.7L41.4,67.7z M49.3,78.6h2
		c1.5,0,2.6-0.3,3.2-0.8c0.6-0.5,0.9-1.2,0.9-2c0-0.8-0.3-1.5-0.8-2.1c-0.5-0.6-1.5-0.8-3-0.8h-2.3L49.3,78.6L49.3,78.6z M64.2,67.7
		H73l5.2,8.7l5.2-8.7h8.8l-10,14.9v10.8h-8V82.6L64.2,67.7L64.2,67.7z M97.8,57h9.9c4.2,0,7.6,3.4,7.6,7.6V96c0,4.2-3.4,7.6-7.6,7.6
		h-9.9v13.6c0,1.6-0.7,3-1.7,4.1c-1.1,1.1-2.5,1.7-4.1,1.7c-29.4,0-56.6,0-86.2,0c-1.6,0-3-0.6-4.1-1.7S0,118.7,0,117.1V5.8
		c0-1.6,0.6-3,1.7-4.1C2.8,0.7,4.2,0,5.8,0h58.7c0.1,0,0.3,0,0.4,0c0.6,0,1.3,0.3,1.8,0.7h0.1c0.1,0.1,0.1,0.1,0.2,0.2l30,30.4
		c0.5,0.5,0.9,1.2,0.9,2c0,0.2-0.1,0.4-0.1,0.7V57L97.8,57z M67.5,28v-19l21.4,21.7H70.2c-0.7,0-1.4-0.3-1.9-0.8
		C67.8,29.4,67.5,28.7,67.5,28L67.5,28z"/>
</g>
</svg>
