<?xml version="1.0" encoding="utf-8"?>
<!-- Generator: Adobe Illustrator 26.0.0, SVG Export Plug-In . SVG Version: 6.00 Build 0)  -->
<svg version="1.1" id="Layer_1" xmlns="http://www.w3.org/2000/svg" xmlns:xlink="http://www.w3.org/1999/xlink" x="0px" y="0px"
	 viewBox="0 0 122.6 122.9" style="enable-background:new 0 0 122.6 122.9;" xml:space="preserve">
<style type="text/css">
	.st0{fill-rule:evenodd;clip-rule:evenodd;fill:#005993;}
</style>
<path class="st0" d="M26.7,26.8h25.2v25.1H26.7V26.8z M35.7,0H23.1c-3,0-6,0.6-8.8,1.8c-2.8,1.2-5.3,2.9-7.5,5l0,0
	c-2.1,2.1-3.8,4.7-5,7.5C0.6,17,0,20,0,23.1v15.6h10.2V23.1c0-1.7,0.4-3.3,1-4.9c0.6-1.6,1.6-3,2.8-4.2l0,0c2.4-2.4,5.7-3.8,9.1-3.8
	h12.6V0z M99.5,0h-8.2v10.2h8.2c1.7,0,3.3,0.4,4.9,1c1.6,0.6,3,1.6,4.2,2.8l0.3,0.4l0,0c1,1.1,1.9,2.4,2.4,3.8c0.7,1.5,1,3.2,1,4.9
	v15.6h10.2V23.1c0-5.9-2.3-11.7-6.4-15.9l0,0l-0.4-0.4c-2.1-2.1-4.7-3.8-7.5-5C105.6,0.6,102.6,0,99.5,0z M122.6,99.8V82.5h-10.2
	v17.3c0,1.7-0.3,3.3-1,4.9c-0.7,1.6-1.6,3-2.8,4.2c-2.4,2.4-5.7,3.8-9.1,3.8h-8.2v10.2h8.2c6.1,0,12-2.4,16.3-6.8
	c2.1-2.1,3.8-4.7,5-7.5C122,105.8,122.6,102.8,122.6,99.8L122.6,99.8z M23.1,122.9h12.6v-10.2H23.1c-3.4,0-6.7-1.4-9.1-3.8l-0.3-0.2
	c-1.1-1.2-2-2.6-2.6-4.1c-0.6-1.5-0.9-3.1-0.9-4.7V82.5H0v17.3c0,2.9,0.6,5.8,1.7,8.6c1.1,2.7,2.7,5.3,4.8,7.4l0.3,0.3
	c2.1,2.1,4.7,3.8,7.5,5C17.1,122.3,20,122.9,23.1,122.9L23.1,122.9z M89.6,89.8H96v6.3h-6.4V89.8z M77.2,89.8h6.4v6H70.8V83.5H77
	v-6.2h6.3V64.8h6.5v6.1h6.1v6.3h-6.1v6.3H77.2L77.2,89.8L77.2,89.8z M58.1,77.1h6.2v-6.3h-6v-6.3h6v-6.3h-6.1v6.3h-6.4v-6.3h6.3
	V39.3h6.4v18.8h6.2v6.3h6.1v-6.3h6.4v6.3h-6.1v6.3h-6.4v12.5h-6.2v12.6h-6.4V77.1z M89.5,58.1h6.4v6.3h-6.4
	C89.5,64.5,89.5,58.1,89.5,58.1z M39.2,58.1h6.4v6.3h-6.4C39.2,64.5,39.2,58.1,39.2,58.1z M26.7,58.1h6.4v6.3h-6.4
	C26.7,64.5,26.7,58.1,26.7,58.1z M58.1,26.8h6.4v6.3h-6.4V26.8z M26.6,70.9h25.2V96H26.6V70.9z M32.7,77h13v12.9h-13V77z M70.7,26.8
	h25.2v25.1H70.7L70.7,26.8L70.7,26.8z M76.8,32.9h13v12.9h-13V32.9L76.8,32.9z M32.8,32.9h13v12.9h-13V32.9L32.8,32.9z"/>
</svg>
