<?xml version="1.0" encoding="utf-8"?>
<!-- Generator: Adobe Illustrator 26.0.0, SVG Export Plug-In . SVG Version: 6.00 Build 0)  -->
<svg version="1.1" id="Layer_1" xmlns="http://www.w3.org/2000/svg" xmlns:xlink="http://www.w3.org/1999/xlink" x="0px" y="0px"
	 viewBox="0 0 122.9 122.9" style="enable-background:new 0 0 122.9 122.9;" xml:space="preserve">
<style type="text/css">
	.st0{fill-rule:evenodd;clip-rule:evenodd;fill:#FFC107;}
</style>
<path class="st0" d="M61.4,0c33.9,0,61.4,27.5,61.4,61.4s-27.5,61.4-61.4,61.4S0,95.4,0,61.4c0,0,0,0,0,0C0,27.5,27.5,0,61.4,0z
	 M51.4,58c3.3-2.2,4.9-5.2,4.7-11.9V29c0-2.4-4.4-2.7-4.6,0l-0.2,14c0.2,1.1-0.5,2.1-1.6,2.3s-2.1-0.5-2.3-1.6c0-0.2,0-0.5,0-0.7
	l0.2-14.4c0-2.6-4.2-2.8-4.3,0c0,4-0.2,10.4-0.2,14.4c0.2,0.9-0.4,1.8-1.4,2c-0.9,0.2-1.8-0.4-2-1.4c0-0.2,0-0.4,0-0.6L40,28.6
	c-0.1-1.3-1.2-2.3-2.5-2.2c-0.4,0-0.8,0.2-1.2,0.4c-1.5,1-1.2,3-1.3,4.6L34.4,48c0.1,4.8,1.3,8.7,5.1,10.3c0.7,0.3,1.5,0.5,2.3,0.6
	l-1.3,33.1c-0.1,2.3,1.8,4.3,4.1,4.3c0,0,0,0,0.1,0h0.5c2.6,0,4.7-2.2,4.7-4.8c0,0,0,0,0,0l-1.1-32.6C49.7,58.8,50.6,58.5,51.4,58
	L51.4,58z M71.6,90.9l-0.1-29.1c-12.7-7.3-8.6-35.5,4-35.3c15.4,0.2,17.2,31.7,4,35.2l1,29.3C80.8,97.9,71.7,98.5,71.6,90.9
	L71.6,90.9z"/>
</svg>
