<?xml version="1.0" encoding="utf-8"?>
<!-- Generator: Adobe Illustrator 26.0.0, SVG Export Plug-In . SVG Version: 6.00 Build 0)  -->
<svg version="1.1"
	 id="Layer_1" shape-rendering="geometricPrecision" text-rendering="geometricPrecision" image-rendering="optimizeQuality"
	 xmlns="http://www.w3.org/2000/svg" xmlns:xlink="http://www.w3.org/1999/xlink" x="0px" y="0px" viewBox="0 0 403 512.4"
	 style="enable-background:new 0 0 403 512.4;" xml:space="preserve">
<style type="text/css">
	.st0{fill:#005993;}
</style>
<path class="st0" d="M18.7,114.8h85V97.4c0-26.8,11-51.2,28.6-68.8S174.3,0,201.1,0C228,0,252.3,11,270,28.6s28.6,42,28.6,68.8v17.3
	h85.7c5.1,0,9.8,2.1,13.2,5.5l0.9,1c2.9,3.3,4.6,7.6,4.6,12.2v312c0,18.4-7.5,35.1-19.7,47.3c-12.1,12.1-28.9,19.7-47.3,19.7H67
	c-18.3,0-35.1-7.6-47.3-19.7C7.6,480.6,0,463.8,0,445.4v-312c0-5.1,2.1-9.8,5.5-13.2C8.8,116.9,13.5,114.7,18.7,114.8z M134.2,350.4
	c-5.3-4.6-5.8-12.7-1.1-18c4.6-5.3,12.7-5.8,18-1.1l31.2,27.5l68.9-73.4c4.8-5.1,12.9-5.4,18-0.5c5.1,4.8,5.4,12.9,0.6,18l-77,82.1
	c-4.6,5.3-12.7,5.8-18,1.1L134.2,350.4L134.2,350.4z M127.5,114.8h147.4V97.5c0-20.2-8.3-38.7-21.6-52c-13.4-13.4-31.8-21.7-52-21.7
	s-38.7,8.3-52,21.7c-13.4,13.3-21.7,31.8-21.7,52C127.5,97.5,127.5,114.8,127.5,114.8z M103.7,160.8v-22.3H23.8v306.9
	c0,11.9,4.9,22.6,12.7,30.5c7.8,7.9,18.6,12.7,30.5,12.7h269c11.8,0,22.6-4.9,30.5-12.7c7.8-7.8,12.7-18.6,12.7-30.5V138.5h-80.6
	v22.6c8.8,4.5,14.9,13.6,14.9,24.2c0,15-12.1,27.1-27.1,27.1c-15,0-27.1-12.2-27.1-27.1c0-10.9,6.4-20.3,15.7-24.6v-22.1H127.5v22.4
	c9,4.4,15.2,13.7,15.2,24.4c0,15-12.1,27.1-27.1,27.1c-15,0-27.2-12.2-27.2-27.1C88.3,174.5,94.6,165.2,103.7,160.8L103.7,160.8z"/>
</svg>
