<?xml version="1.0" encoding="utf-8"?>
<!-- Generator: Adobe Illustrator 26.0.0, SVG Export Plug-In . SVG Version: 6.00 Build 0)  -->
<svg version="1.1" id="Capa_1" xmlns="http://www.w3.org/2000/svg" xmlns:xlink="http://www.w3.org/1999/xlink" x="0px" y="0px"
	 viewBox="0 0 800 800" style="enable-background:new 0 0 800 800;" xml:space="preserve">
<style type="text/css">
	.st0{fill:#FFC107;}
</style>
<g>
	<path class="st0" d="M364.2,535.9c-22.5-1.5-44.9-4.5-66.6-8.8c0.1-1.1,0.3-2.2,0.3-3.4c0-14.6-6.6-29.6-17.8-40.1
		c-10.5-9.9-23.8-15.1-37.3-14.1c-13.4,0.6-33-8.4-36.4-16.9c-11.8-29.5-38.4-44.3-66.3-36.6c-11.1,3-21.4,10.4-29,20.1
		c-13.6-13.2-25.8-27.5-36.2-42.9c-4-6-12.1-7.5-18.1-3.5c-6,4-7.5,12.1-3.5,18.1c13.3,19.6,29.1,37.7,46.9,53.9
		c-1.1,7.7-0.4,15.3,2.4,22.4c10.8,27,29.6,50.8,53.5,67.7v39.1c0,25.4,20.7,46.1,46.1,46.1s46.1-20.7,46.1-46.1v-13.4
		c17.7-2.2,32.5-11.8,41.2-25.4c23.7,4.8,48.1,8.1,72.7,9.7c0.3,0,0.6,0,0.9,0c6.8,0,12.5-5.3,13-12.2
		C376.8,542.6,371.4,536.4,364.2,535.9z M242.9,552c-2.4,0.1-4.8,0.1-7.3,0.1c-3.3,0.1-6.8,1.3-9.3,3.8c-2.5,2.4-3.9,5.8-3.9,9.2
		v25.9c0,11.1-9,20.1-20.1,20.1s-20.1-9-20.1-20.1V545c0-4.5-2.3-8.6-6-11c-22.2-14.1-39.7-35.3-49.3-59.5
		c-2.6-6.5-0.6-12.9,1.5-17.1c3.9-7.8,11.2-14.2,18.7-16.2c2.7-0.7,5.3-1.1,7.7-1.1c13.6,0,23,10.8,27.5,22.1
		c8.9,22.4,42.2,34.5,62.1,33.3c6.3-0.4,12.6,2.1,17.9,7.1c6,5.7,9.6,13.6,9.6,21.2C271.9,541.2,257.3,551.2,242.9,552z"/>
	<path class="st0" d="M482.3,525.8c-7.1,1.3-11.8,8.1-10.5,15.2c1.1,6.3,6.6,10.7,12.8,10.7c0.8,0,1.6-0.1,2.4-0.2
		c69.1-12.6,166.7-44.3,239.1-123.1c4.9-5.3,4.5-13.5-0.8-18.4c-5.3-4.9-13.5-4.5-18.4,0.8C639.4,484.2,547.5,513.9,482.3,525.8z"/>
	<path class="st0" d="M425.1,418.7c2.4-0.2,4.7-0.4,7.1-0.7c2.4-0.3,4.7-0.6,7-0.9c1.4-0.2,2.7-0.4,4.1-0.7
		c61.9-10.1,106.5-45.2,106.5-88.2c0-51.1-62.9-91.2-143.3-91.2s-143.3,40.1-143.3,91.2c0,43,44.6,78,106.5,88.2
		c1.4,0.2,2.7,0.5,4.1,0.7c2.3,0.3,4.7,0.6,7,0.9c2.3,0.3,4.7,0.5,7.1,0.7c1.8,0.1,3.6,0.3,5.4,0.4c4.4,0.3,8.8,0.4,13.3,0.4
		s8.9-0.2,13.3-0.4C421.6,419,423.4,418.9,425.1,418.7z M501.9,365.6c-2.2,1.7-4.5,3.3-6.9,4.9c-1.5,1-3,1.9-4.5,2.8
		c-1.6,0.9-3.2,1.8-4.9,2.6c-3.2,1.6-6.5,3.2-10,4.6c-1.6,0.7-3.1,1.3-4.7,1.9c-2.1,0.8-4.4,1.5-6.6,2.3c-1.9,0.6-3.8,1.2-5.7,1.7
		c-2.1,0.6-4.1,1.2-6.3,1.7c-3.9,0.9-7.8,1.8-11.9,2.5c-1.5,0.3-3.1,0.4-4.6,0.7c-3.3,0.5-6.7,0.9-10.1,1.2c-1.5,0.1-3,0.3-4.5,0.4
		c-4.8,0.4-9.7,0.6-14.6,0.6s-9.8-0.2-14.6-0.6c-1.5-0.1-3-0.2-4.5-0.4c-3.4-0.3-6.7-0.7-10.1-1.2c-1.5-0.2-3.1-0.4-4.6-0.7
		c-4.1-0.7-8-1.5-11.9-2.5c-2.1-0.5-4.2-1.1-6.3-1.7c-1.9-0.5-3.9-1.1-5.7-1.7c-2.2-0.7-4.5-1.5-6.6-2.3c-1.6-0.6-3.2-1.3-4.7-1.9
		c-3.5-1.4-6.8-3-10-4.6c-1.7-0.9-3.3-1.7-4.9-2.6c-1.6-0.9-3.1-1.8-4.5-2.8c-2.4-1.6-4.8-3.2-6.9-4.9c-0.5-0.4-1-0.7-1.4-1
		c-2.8-2.3-5.4-4.8-7.7-7.3c-0.1-0.2-0.3-0.3-0.4-0.5c31.5-11.8,67.4-18,104.9-18s73.4,6.2,105,18c-0.1,0.2-0.3,0.3-0.4,0.5
		c-2.3,2.5-4.8,5-7.7,7.3C502.9,364.9,502.4,365.2,501.9,365.6z M406.5,263.2c63.5,0,117.2,29.8,117.2,65.1c0,1.7-0.2,3.4-0.5,5
		c-35.1-13.5-75.1-20.7-116.8-20.7s-81.7,7.1-116.8,20.7c-0.2-1.7-0.5-3.3-0.5-5C289.3,293,343,263.2,406.5,263.2z"/>
	<path class="st0" d="M400,67.8c-211.9,0-384.3,122.7-384.3,273.6v117.2c0,150.8,172.4,273.6,384.3,273.6s384.3-122.7,384.3-273.6
		V341.4C784.3,190.5,611.9,67.8,400,67.8z M758.3,458.6c0,136.5-160.7,247.5-358.3,247.5S41.7,595.1,41.7,458.6V341.4
		C41.7,204.9,202.4,93.9,400,93.9s358.3,111,358.3,247.5V458.6z"/>
	<path class="st0" d="M235.5,511.8c-27.3,4.3-42.4-13.8-43.1-14.7c-4.4-5.6-12.5-6.6-18.2-2.2c-5.7,4.4-6.7,12.6-2.3,18.3
		c0.9,1.1,20.1,25.4,55.2,25.4c4,0,8.2-0.3,12.5-1c7.1-1.1,11.9-7.8,10.8-14.9C249.3,515.5,242.7,510.5,235.5,511.8z"/>
</g>
</svg>
