<svg xmlns="http://www.w3.org/2000/svg" width="3840" height="1857" viewBox="0 0 3840 1857">
  <defs>
    <style>
      .cls-1 {
        fill: #ffc107;
      }

      .cls-1, .cls-2, .cls-3 {
        fill-rule: evenodd;
      }

      .cls-2 {
        fill: #f3f3f5;
      }

      .cls-3 {
        fill: #e7e8ec;
      }
    </style>
  </defs>
  <path class="cls-1" d="M-130,447.367c164.581,0,298,168.789,298,377s-133.419,377-298,377-298-168.79-298-377S-294.581,447.367-130,447.367Z"/>
  <path class="cls-2" d="M3497.51,299.013c470.27,0,851.5,371.823,851.5,830.487s-381.23,830.49-851.5,830.49-851.5-371.82-851.5-830.49S3027.24,299.013,3497.51,299.013Z"/>
  <path id="Ellipse_1_copy" data-name="Ellipse 1 copy" class="cls-2" d="M3966.51-16.987c470.27,0,851.5,371.823,851.5,830.489s-381.23,830.488-851.5,830.488-851.5-371.82-851.5-830.488S3496.24-16.987,3966.51-16.987Z"/>
  <path class="cls-3" d="M3270,330s260.76-92.533,567,33c-0.3,194.676,6,1261,6,1261-258.08-32.01-492.98-178.48-623-408C3066.63,945.267,3084,600.068,3270,330Z"/>
</svg>
