<svg width="25" height="28" viewBox="0 0 25 28" fill="none" xmlns="http://www.w3.org/2000/svg">
<path d="M12.0575 15.092C12.0949 15.092 12.1322 15.092 12.1695 15.092H12.2535C13.9522 15.0733 15.3149 14.4853 16.3415 13.328C17.0135 12.5813 17.5082 11.6107 17.8255 10.416C18.0495 9.53867 18.1802 8.596 18.2175 7.588C18.2362 6.95333 18.2175 6.44933 18.1615 6.076C18.1055 4.676 17.7695 3.5 17.1535 2.548C16.7055 1.82 16.1082 1.24133 15.3615 0.811998C14.4469 0.307999 13.4015 0.0373325 12.2255 0H12.1415C11.6935 0 11.2455 0.0466652 10.7975 0.139999C10.1442 0.270666 9.54686 0.485332 9.00553 0.783998C8.25886 1.21333 7.6522 1.792 7.18553 2.52C6.56953 3.49067 6.23353 4.676 6.17753 6.076C6.12153 6.44933 6.10286 6.95333 6.12153 7.588C6.15886 8.596 6.28953 9.53867 6.51353 10.416C6.83086 11.6107 7.32553 12.5813 7.99753 13.328C9.0242 14.4853 10.3775 15.0733 12.0575 15.092ZM7.71753 6.216C7.71753 6.19733 7.71753 6.17867 7.71753 6.16C7.77353 4.89067 8.09086 3.88267 8.66953 3.136C9.11753 2.53867 9.71486 2.10933 10.4615 1.848C10.9655 1.66133 11.5162 1.568 12.1135 1.568H12.1975C13.2802 1.58667 14.1855 1.86667 14.9135 2.408C15.9589 3.17333 16.5189 4.424 16.5935 6.16C16.5935 6.19733 16.6029 6.216 16.6215 6.216V6.244C16.6775 7.04667 16.6589 7.84933 16.5655 8.652C16.3789 10.2387 15.9122 11.452 15.1655 12.292C14.4562 13.0947 13.4669 13.5053 12.1975 13.524H12.1415C10.8535 13.5053 9.85487 13.0947 9.14553 12.292C8.39886 11.452 7.94153 10.2293 7.77353 8.624C7.6802 7.80267 7.66153 7.00933 7.71753 6.244V6.216ZM24.0695 22.232V22.092C24.0509 21.084 23.9202 20.2627 23.6775 19.628C23.2669 18.508 22.5202 17.7613 21.4375 17.388L21.3815 17.36C20.6162 17.1733 19.8135 16.8933 18.9735 16.52C18.3762 16.24 17.7975 15.9413 17.2375 15.624C16.8455 15.3813 16.6215 15.232 16.5655 15.176C16.3975 15.0453 16.2062 14.9987 15.9915 15.036C15.7769 15.0733 15.6042 15.1853 15.4735 15.372C15.3429 15.5587 15.3009 15.7547 15.3475 15.96C15.3942 16.1653 15.5015 16.3333 15.6695 16.464L15.7815 16.52C17.5175 17.6587 19.2442 18.4427 20.9615 18.872C21.5775 19.0773 22.0069 19.516 22.2495 20.188C22.3989 20.636 22.4829 21.28 22.5015 22.12C22.5015 22.1947 22.5109 22.2413 22.5295 22.26C22.5295 23.0813 22.4829 23.6787 22.3895 24.052C21.4749 24.5747 20.3549 25.0413 19.0295 25.452C16.8642 26.1053 14.5822 26.432 12.1835 26.432C9.78487 26.432 7.50286 26.1053 5.33753 25.452C4.03086 25.0413 2.90153 24.5747 1.94953 24.052C1.9122 23.828 1.87953 23.5387 1.85153 23.184C1.82353 22.8293 1.81886 22.5213 1.83753 22.26V22.12C1.8562 21.28 1.94953 20.636 2.11753 20.188C2.3602 19.516 2.7802 19.0773 3.37753 18.872C5.09486 18.424 6.82153 17.64 8.55753 16.52L8.66953 16.464C8.8562 16.3333 8.9682 16.1607 9.00553 15.946C9.04286 15.7313 8.9962 15.5353 8.86553 15.358C8.73487 15.1807 8.5622 15.0733 8.34753 15.036C8.13286 14.9987 7.94153 15.0453 7.77353 15.176C7.71753 15.232 7.49353 15.372 7.10153 15.596C6.54153 15.932 5.96286 16.2307 5.36553 16.492C4.5442 16.8653 3.74153 17.1547 2.95753 17.36L2.90153 17.388C1.81886 17.7613 1.0722 18.508 0.661531 19.628C0.418865 20.244 0.288198 21.056 0.269531 22.064V22.316C0.269531 23.5293 0.362865 24.3787 0.549531 24.864C0.605531 25.0133 0.708198 25.1347 0.857531 25.228C1.19353 25.452 1.67886 25.704 2.31353 25.984C3.48953 26.5253 4.77753 26.964 6.17753 27.3C8.1002 27.7667 10.0975 28 12.1695 28C15.0069 28 17.6762 27.58 20.1775 26.74C21.4655 26.292 22.5669 25.7973 23.4815 25.256L23.5095 25.228C23.6402 25.1347 23.7335 25.0133 23.7895 24.864C23.9202 24.528 24.0135 24.0333 24.0695 23.38C24.0882 22.876 24.0882 22.4933 24.0695 22.232Z" fill="white"/>
</svg>
