<svg width="29" height="24" viewBox="0 0 29 24" fill="none" xmlns="http://www.w3.org/2000/svg">
<path d="M11.4819 4.43984L11.7339 5.95184H26.4339L23.6339 13.5118C23.3726 14.2398 23.0926 14.7718 22.7939 15.1078C22.4206 15.5558 21.9446 15.7798 21.3659 15.7798H9.99792C9.43792 15.7798 8.97126 15.5558 8.59792 15.1078C8.31792 14.7905 8.02859 14.2585 7.72992 13.5118L4.76192 0.659843H0.169922V2.17184H3.55792L6.21792 13.5118C6.55392 14.6318 7.00192 15.5092 7.56192 16.1438C8.23392 16.9092 9.04592 17.2918 9.99792 17.2918H21.3659C22.3366 17.2918 23.1393 16.9372 23.7739 16.2278C24.2966 15.6305 24.7539 14.7252 25.1459 13.5118L28.1699 4.43984H11.4819ZM21.3659 18.8038C20.7313 18.8038 20.1946 19.0232 19.7559 19.4618C19.3173 19.9005 19.0979 20.4372 19.0979 21.0718C19.0979 21.7065 19.3173 22.2432 19.7559 22.6818C20.1946 23.1205 20.7313 23.3398 21.3659 23.3398C22.0006 23.3398 22.5373 23.1205 22.9759 22.6818C23.4146 22.2432 23.6339 21.7065 23.6339 21.0718C23.6339 20.4372 23.4146 19.9005 22.9759 19.4618C22.5373 19.0232 22.0006 18.8038 21.3659 18.8038ZM22.1219 21.8278H20.6099V20.3158H22.1219V21.8278ZM9.24192 18.8038C8.62592 18.8038 8.09392 19.0232 7.64592 19.4618C7.19792 19.9005 6.97392 20.4372 6.97392 21.0718C6.97392 21.7065 7.19792 22.2432 7.64592 22.6818C8.09392 23.1205 8.62592 23.3398 9.24192 23.3398C9.85792 23.3398 10.3899 23.1205 10.8379 22.6818C11.2859 22.2432 11.5099 21.7065 11.5099 21.0718C11.5099 20.4372 11.2906 19.9005 10.8519 19.4618C10.4133 19.0232 9.87659 18.8038 9.24192 18.8038ZM9.99792 21.8278H8.48592V20.3158H9.99792V21.8278Z" fill="white"/>
</svg>
